<svg width="96" height="96" viewBox="0 0 96 96" fill="none" xmlns="http://www.w3.org/2000/svg">
<g filter="url(#filter0_d_1998_38986)">
<path d="M80 46C80 28.3251 65.6749 14 48 14C30.3251 14 16 28.3251 16 46C16 61.9751 27.7 75.2125 43 77.6125V55.25H34.8749V46H43V38.95C43 30.9312 47.7751 26.5 55.0875 26.5C58.5875 26.5 62.25 27.125 62.25 27.125V35H58.2125C54.2375 35 53 37.4688 53 40V46H61.8749L60.4563 55.25H53V77.6125C68.3 75.2125 80 61.9751 80 46Z" fill="#1877F2"/>
</g>
<path d="M60.4563 55.25L61.875 46H53.0001V40C53.0001 37.4688 54.2375 35 58.2126 35H62.2501V27.125C62.2501 27.125 58.5875 26.5 55.0875 26.5C47.7751 26.5 43.0001 30.9312 43.0001 38.95V46H34.875V55.25H43.0001V77.6125C44.6313 77.8688 46.3001 78 48.0001 78C49.7001 78 51.3689 77.8688 53.0001 77.6125V55.25H60.4563Z" fill="white"/>
<defs>
<filter id="filter0_d_1998_38986" x="0" y="0" width="96" height="95.6125" filterUnits="userSpaceOnUse" color-interpolation-filters="sRGB">
<feFlood flood-opacity="0" result="BackgroundImageFix"/>
<feColorMatrix in="SourceAlpha" type="matrix" values="0 0 0 0 0 0 0 0 0 0 0 0 0 0 0 0 0 0 127 0" result="hardAlpha"/>
<feOffset dy="2"/>
<feGaussianBlur stdDeviation="8"/>
<feComposite in2="hardAlpha" operator="out"/>
<feColorMatrix type="matrix" values="0 0 0 0 0 0 0 0 0 0 0 0 0 0 0 0 0 0 0.08 0"/>
<feBlend mode="normal" in2="BackgroundImageFix" result="effect1_dropShadow_1998_38986"/>
<feBlend mode="normal" in="SourceGraphic" in2="effect1_dropShadow_1998_38986" result="shape"/>
</filter>
</defs>
</svg>
