<svg width="24" height="24" viewBox="0 0 24 24" fill="none" xmlns="http://www.w3.org/2000/svg">
<path d="M3.00794 24.0002H2.69702C2.3848 23.9998 2.08546 23.8758 1.86467 23.6552C1.64388 23.4346 1.51967 23.1355 1.51929 22.8235V22.0934C1.51929 21.9813 1.56383 21.8739 1.64311 21.7946C1.7224 21.7154 1.82993 21.6709 1.94206 21.6709H3.76386C3.87598 21.6709 3.98352 21.7154 4.0628 21.7946C4.14209 21.8739 4.18663 21.9813 4.18663 22.0934V22.8235C4.18625 23.1356 4.0619 23.4349 3.8409 23.6555C3.6199 23.8761 3.32032 24.0001 3.00794 24.0002ZM2.36387 22.5159V22.8235C2.36406 22.9114 2.39913 22.9957 2.46139 23.0579C2.52365 23.1201 2.60803 23.1551 2.69605 23.1552H3.00794C3.09595 23.1551 3.18033 23.1201 3.2426 23.0579C3.30486 22.9957 3.33992 22.9114 3.34012 22.8235V22.5159H2.36387Z" fill="#27276D"/>
<path d="M9.02039 24.0002H8.70947C8.39725 23.9998 8.09792 23.8758 7.87713 23.6552C7.65633 23.4346 7.53212 23.1355 7.53174 22.8235V22.0934C7.53174 21.9813 7.57628 21.8739 7.65557 21.7946C7.73485 21.7154 7.84239 21.6709 7.95451 21.6709H9.77631C9.88843 21.6709 9.99597 21.7154 10.0753 21.7946C10.1545 21.8739 10.1991 21.9813 10.1991 22.0934V22.8235C10.1987 23.1356 10.0744 23.4349 9.85335 23.6555C9.63235 23.8761 9.33277 24.0001 9.02039 24.0002ZM8.37632 22.5159V22.8235C8.37651 22.9114 8.41158 22.9957 8.47384 23.0579C8.5361 23.1201 8.62048 23.1551 8.7085 23.1552H9.02039C9.10841 23.1551 9.19279 23.1201 9.25505 23.0579C9.31731 22.9957 9.35238 22.9114 9.35257 22.8235V22.5159H8.37632Z" fill="#27276D"/>
<path d="M9.82769 22.516H1.8892C1.38837 22.5155 0.908215 22.3164 0.554054 21.9625C0.199892 21.6087 0.000639378 21.1288 0 20.6283V3.29981C0.000639378 2.79932 0.199892 2.31951 0.554054 1.96563C0.908215 1.61174 1.38837 1.41268 1.8892 1.41211H9.82769C10.3285 1.41268 10.8087 1.61174 11.1628 1.96563C11.517 2.31951 11.7162 2.79932 11.7169 3.29981V20.6283C11.7162 21.1288 11.517 21.6087 11.1628 21.9625C10.8087 22.3164 10.3285 22.5155 9.82769 22.516ZM1.8892 2.2571C1.61254 2.25742 1.34731 2.36737 1.15166 2.56284C0.956018 2.75831 0.845932 3.02334 0.845548 3.29981V20.6283C0.845868 20.9048 0.955934 21.1699 1.15159 21.3654C1.34725 21.5609 1.61252 21.6708 1.8892 21.6711H9.82769C10.1044 21.6708 10.3696 21.5609 10.5653 21.3654C10.7609 21.1699 10.871 20.9048 10.8713 20.6283V3.29981C10.871 3.02334 10.7609 2.75831 10.5652 2.56284C10.3696 2.36737 10.1043 2.25742 9.82769 2.2571H1.8892Z" fill="#27276D"/>
<path d="M8.38231 5.04518H3.33464C3.22251 5.04518 3.11498 5.00067 3.03569 4.92143C2.95641 4.8422 2.91187 4.73474 2.91187 4.62269C2.91187 4.51064 2.95641 4.40317 3.03569 4.32394C3.11498 4.24471 3.22251 4.2002 3.33464 4.2002H8.38231C8.49444 4.2002 8.60197 4.24471 8.68126 4.32394C8.76054 4.40317 8.80509 4.51064 8.80509 4.62269C8.80509 4.73474 8.76054 4.8422 8.68126 4.92143C8.60197 5.00067 8.49444 5.04518 8.38231 5.04518Z" fill="#FD5C70"/>
<path d="M8.38231 8.37526H3.33464C3.22251 8.37526 3.11498 8.33075 3.03569 8.25152C2.95641 8.17228 2.91187 8.06482 2.91187 7.95277C2.91187 7.84072 2.95641 7.73325 3.03569 7.65402C3.11498 7.57479 3.22251 7.53027 3.33464 7.53027H8.38231C8.49444 7.53027 8.60197 7.57479 8.68126 7.65402C8.76054 7.73325 8.80509 7.84072 8.80509 7.95277C8.80509 8.06482 8.76054 8.17228 8.68126 8.25152C8.60197 8.33075 8.49444 8.37526 8.38231 8.37526Z" fill="#FD5C70"/>
<path d="M8.38229 14.0984C8.14419 14.0984 7.91145 14.0279 7.71348 13.8957C7.51551 13.7635 7.36122 13.5756 7.2701 13.3558C7.17899 13.1359 7.15515 12.8941 7.2016 12.6607C7.24805 12.4273 7.3627 12.213 7.53106 12.0447C7.69942 11.8765 7.91392 11.7619 8.14743 11.7155C8.38095 11.6691 8.623 11.6929 8.84297 11.784C9.06294 11.875 9.25095 12.0292 9.38323 12.227C9.5155 12.4249 9.58611 12.6575 9.58611 12.8954C9.58579 13.2144 9.45885 13.5202 9.23316 13.7457C9.00747 13.9712 8.70146 14.0981 8.38229 14.0984ZM8.38229 12.5376C8.31142 12.5376 8.24214 12.5586 8.18322 12.598C8.12429 12.6373 8.07837 12.6932 8.05126 12.7587C8.02415 12.8241 8.01707 12.8961 8.03092 12.9656C8.04476 13.035 8.07891 13.0988 8.12904 13.1489C8.17917 13.199 8.24303 13.233 8.31254 13.2468C8.38205 13.2606 8.4541 13.2535 8.51956 13.2263C8.58502 13.1992 8.64096 13.1533 8.6803 13.0944C8.71963 13.0355 8.74061 12.9662 8.74056 12.8954C8.74059 12.8483 8.73135 12.8018 8.71336 12.7583C8.69537 12.7148 8.66899 12.6753 8.63572 12.642C8.60245 12.6087 8.56295 12.5823 8.51947 12.5642C8.47598 12.5462 8.42937 12.5369 8.38229 12.5369V12.5376Z" fill="#FD5C70"/>
<path d="M15.2906 24.0002H14.9797C14.6675 23.9998 14.3682 23.8758 14.1474 23.6552C13.9266 23.4346 13.8024 23.1355 13.802 22.8235V22.0934C13.802 21.9813 13.8465 21.8739 13.9258 21.7946C14.0051 21.7154 14.1126 21.6709 14.2248 21.6709H16.0466C16.1587 21.6709 16.2662 21.7154 16.3455 21.7946C16.4248 21.8739 16.4693 21.9813 16.4693 22.0934V22.8235C16.469 23.1356 16.3446 23.4349 16.1236 23.6555C15.9026 23.8761 15.603 24.0001 15.2906 24.0002ZM14.6466 22.5159V22.8235C14.6468 22.9114 14.6818 22.9957 14.7441 23.0579C14.8064 23.1201 14.8907 23.1551 14.9788 23.1552H15.2906C15.3787 23.1551 15.463 23.1201 15.5253 23.0579C15.5876 22.9957 15.6226 22.9114 15.6228 22.8235V22.5159H14.6466Z" fill="#27276D"/>
<path d="M21.3031 24.0002H20.9922C20.68 23.9998 20.3806 23.8758 20.1598 23.6552C19.939 23.4346 19.8148 23.1355 19.8145 22.8235V22.0934C19.8145 21.9813 19.859 21.8739 19.9383 21.7946C20.0176 21.7154 20.1251 21.6709 20.2372 21.6709H22.059C22.1711 21.6709 22.2787 21.7154 22.358 21.7946C22.4373 21.8739 22.4818 21.9813 22.4818 22.0934V22.8235C22.4814 23.1356 22.3571 23.4349 22.1361 23.6555C21.9151 23.8761 21.6155 24.0001 21.3031 24.0002ZM20.659 22.5159V22.8235C20.6592 22.9114 20.6943 22.9957 20.7566 23.0579C20.8188 23.1201 20.9032 23.1551 20.9912 23.1552H21.3031C21.3911 23.1551 21.4755 23.1201 21.5378 23.0579C21.6 22.9957 21.6351 22.9114 21.6353 22.8235V22.5159H20.659Z" fill="#27276D"/>
<path d="M22.1104 22.516H14.1719C13.6711 22.5155 13.1909 22.3164 12.8368 21.9625C12.4826 21.6087 12.2834 21.1288 12.2827 20.6283V3.29981C12.2834 2.79932 12.4826 2.31951 12.8368 1.96563C13.1909 1.61174 13.6711 1.41268 14.1719 1.41211H22.1104C22.6112 1.41268 23.0914 1.61174 23.4455 1.96563C23.7997 2.31951 23.999 2.79932 23.9996 3.29981V20.6283C23.999 21.1288 23.7997 21.6087 23.4455 21.9625C23.0914 22.3164 22.6112 22.5155 22.1104 22.516ZM14.1719 2.2571C13.8953 2.25742 13.63 2.36737 13.4344 2.56284C13.2387 2.75831 13.1286 3.02334 13.1283 3.29981V20.6283C13.1286 20.9048 13.2386 21.1699 13.4343 21.3654C13.63 21.5609 13.8952 21.6708 14.1719 21.6711H22.1104C22.3871 21.6708 22.6523 21.5609 22.848 21.3654C23.0437 21.1699 23.1537 20.9048 23.154 20.6283V3.29981C23.1537 3.02334 23.0436 2.75831 22.8479 2.56284C22.6523 2.36737 22.3871 2.25742 22.1104 2.2571H14.1719Z" fill="#27276D"/>
<path d="M20.665 5.04518H15.6174C15.5052 5.04518 15.3977 5.00067 15.3184 4.92143C15.2391 4.8422 15.1946 4.73474 15.1946 4.62269C15.1946 4.51064 15.2391 4.40317 15.3184 4.32394C15.3977 4.24471 15.5052 4.2002 15.6174 4.2002H20.665C20.7772 4.2002 20.8847 4.24471 20.964 4.32394C21.0433 4.40317 21.0878 4.51064 21.0878 4.62269C21.0878 4.73474 21.0433 4.8422 20.964 4.92143C20.8847 5.00067 20.7772 5.04518 20.665 5.04518Z" fill="#FD5C70"/>
<path d="M20.665 8.37526H15.6174C15.5052 8.37526 15.3977 8.33075 15.3184 8.25152C15.2391 8.17228 15.1946 8.06482 15.1946 7.95277C15.1946 7.84072 15.2391 7.73325 15.3184 7.65402C15.3977 7.57479 15.5052 7.53027 15.6174 7.53027H20.665C20.7772 7.53027 20.8847 7.57479 20.964 7.65402C21.0433 7.73325 21.0878 7.84072 21.0878 7.95277C21.0878 8.06482 21.0433 8.17228 20.964 8.25152C20.8847 8.33075 20.7772 8.37526 20.665 8.37526Z" fill="#FD5C70"/>
<path d="M20.665 14.0984C20.4269 14.0984 20.1942 14.0279 19.9962 13.8957C19.7982 13.7635 19.6439 13.5756 19.5528 13.3558C19.4617 13.136 19.4379 12.8941 19.4843 12.6607C19.5308 12.4273 19.6454 12.213 19.8138 12.0447C19.9821 11.8765 20.1966 11.7619 20.4301 11.7155C20.6637 11.6691 20.9057 11.6929 21.1257 11.784C21.3457 11.875 21.5337 12.0292 21.6659 12.227C21.7982 12.4249 21.8688 12.6575 21.8688 12.8954C21.8685 13.2144 21.7416 13.5202 21.5159 13.7457C21.2902 13.9713 20.9842 14.0981 20.665 14.0984ZM20.665 12.5376C20.5941 12.5376 20.5249 12.5586 20.4659 12.598C20.407 12.6373 20.3611 12.6933 20.334 12.7587C20.3069 12.8241 20.2998 12.8961 20.3136 12.9656C20.3275 13.035 20.3616 13.0988 20.4118 13.1489C20.4619 13.199 20.5257 13.233 20.5953 13.2468C20.6648 13.2606 20.7368 13.2535 20.8023 13.2264C20.8677 13.1992 20.9237 13.1533 20.963 13.0944C21.0023 13.0355 21.0233 12.9662 21.0233 12.8954C21.0233 12.8484 21.0141 12.8018 20.9961 12.7583C20.9781 12.7148 20.9517 12.6753 20.9184 12.642C20.8852 12.6087 20.8457 12.5823 20.8022 12.5643C20.7587 12.5462 20.7121 12.5369 20.665 12.5369V12.5376Z" fill="#FD5C70"/>
</svg>
