<svg width="48" height="43" viewBox="0 0 48 43" fill="none" xmlns="http://www.w3.org/2000/svg">
<g filter="url(#filter0_d_1258_24703)">
<path fill-rule="evenodd" clip-rule="evenodd" d="M15.511 6.16308L10.5874 25.6952C10.0246 27.9278 11.6997 30.0969 13.9865 30.0969H33.5678C35.1722 30.0969 36.572 29.0002 36.9669 27.4338L41.8904 7.90172C42.4532 5.66912 40.7782 3.5 38.4913 3.5H18.91C17.3056 3.5 15.9058 4.59672 15.511 6.16308ZM17.7718 7.32741L13.1902 25.4862C12.9283 26.5241 13.7069 27.5327 14.7699 27.5327H33.0471C33.7926 27.5327 34.4431 27.0231 34.6268 26.2952L39.2084 8.1364C39.4703 7.0985 38.6917 6.08989 37.6287 6.08989H19.3515C18.606 6.08989 17.9555 6.59949 17.7718 7.32741Z" fill="#8024F4"/>
<path fill-rule="evenodd" clip-rule="evenodd" d="M13.1902 25.4862L17.7718 7.32741C17.9555 6.59949 18.606 6.08989 19.3515 6.08989H37.6287C38.6917 6.08989 39.4703 7.0985 39.2084 8.1364L34.6268 26.2952C34.4431 27.0231 33.7926 27.5327 33.0471 27.5327H14.7699C13.7069 27.5327 12.9283 26.5241 13.1902 25.4862ZM18.3315 8.01379L14.0551 24.6972C13.8106 25.6507 14.5373 26.5774 15.5296 26.5774H32.5894C33.2853 26.5774 33.8925 26.1092 34.0639 25.4404L38.3404 8.75706C38.5848 7.80348 37.8581 6.87682 36.8659 6.87682H19.806C19.1101 6.87682 18.5029 7.34502 18.3315 8.01379Z" fill="#8024F4"/>
<path fill-rule="evenodd" clip-rule="evenodd" d="M7.03319 12.5659L2.10963 32.098C1.54684 34.3306 3.22188 36.4997 5.5087 36.4997H25.09C26.6944 36.4997 28.0942 35.403 28.4891 33.8367L33.4126 14.3045C33.9754 12.072 32.3004 9.90283 30.0136 9.90283H10.4323C8.82785 9.90283 7.42803 10.9996 7.03319 12.5659ZM9.34558 13.7302L4.76399 31.889C4.50212 32.9269 5.28067 33.9355 6.3437 33.9355H24.6209C25.3664 33.9355 26.0169 33.4259 26.2006 32.698L30.7822 14.5392C31.044 13.5013 30.2655 12.4927 29.2025 12.4927H10.9253C10.1798 12.4927 9.52924 13.0023 9.34558 13.7302Z" fill="#22004E"/>
<path fill-rule="evenodd" clip-rule="evenodd" d="M4.76399 31.889L9.34558 13.7302C9.52924 13.0023 10.1798 12.4927 10.9253 12.4927H29.2025C30.2655 12.4927 31.044 13.5013 30.7822 14.5392L26.2006 32.698C26.0169 33.4259 25.3664 33.9355 24.6209 33.9355H6.3437C5.28067 33.9355 4.50212 32.9269 4.76399 31.889ZM9.85374 14.4967L5.57729 31.1801C5.33286 32.1336 6.05955 33.0603 7.05179 33.0603H24.1117C24.8076 33.0603 25.4147 32.5921 25.5862 31.9233L29.8626 15.24C30.107 14.2864 29.3804 13.3597 28.3881 13.3597H11.3282C10.6324 13.3597 10.0252 13.8279 9.85374 14.4967Z" fill="#22004E"/>
</g>
<defs>
<filter id="filter0_d_1258_24703" x="0" y="1.5" width="48" height="40.9995" filterUnits="userSpaceOnUse" color-interpolation-filters="sRGB">
<feFlood flood-opacity="0" result="BackgroundImageFix"/>
<feColorMatrix in="SourceAlpha" type="matrix" values="0 0 0 0 0 0 0 0 0 0 0 0 0 0 0 0 0 0 127 0" result="hardAlpha"/>
<feOffset dx="2" dy="2"/>
<feGaussianBlur stdDeviation="2"/>
<feComposite in2="hardAlpha" operator="out"/>
<feColorMatrix type="matrix" values="0 0 0 0 0 0 0 0 0 0 0 0 0 0 0 0 0 0 0.08 0"/>
<feBlend mode="normal" in2="BackgroundImageFix" result="effect1_dropShadow_1258_24703"/>
<feBlend mode="normal" in="SourceGraphic" in2="effect1_dropShadow_1258_24703" result="shape"/>
</filter>
</defs>
</svg>
